<svg width="116" height="48" viewBox="0 0 116 48" fill="none" xmlns="http://www.w3.org/2000/svg">
<path d="M0.54834 36L0.99834 33.9H1.64834C2.74834 33.9 3.73167 33.7 4.59834 33.3C5.49834 32.8667 6.11501 31.8667 6.44834 30.3L11.6483 5.8C11.7817 5.26667 11.8483 4.8 11.8483 4.4C11.8483 3.53333 11.515 2.98333 10.8483 2.75C10.1817 2.51666 9.31501 2.4 8.24834 2.4H7.59834L8.04834 0.299998H22.5983L22.1483 2.4H21.4983C20.3983 2.4 19.3983 2.6 18.4983 3C17.6317 3.36666 17.0317 4.3 16.6983 5.8L10.7983 33.5H20.6483C22.1817 33.5 23.365 33.0167 24.1983 32.05C25.0317 31.0833 25.6317 30.0667 25.9983 29L27.2983 25.25H29.8983L27.2983 36H0.54834ZM44.4507 36.5C41.6174 36.5 39.3007 35.65 37.5007 33.95C35.734 32.2167 34.8507 29.6167 34.8507 26.15C34.8507 24.2833 35.1507 22.35 35.7507 20.35C36.3507 18.3167 37.2674 16.4167 38.5007 14.65C39.734 12.8833 41.284 11.45 43.1507 10.35C45.0174 9.25 47.2174 8.7 49.7507 8.7C51.5174 8.7 53.1174 9.05 54.5507 9.75C55.984 10.45 57.1174 11.5667 57.9507 13.1C58.8174 14.6 59.2507 16.5833 59.2507 19.05C59.2507 20.4833 59.0674 22 58.7007 23.6C58.334 25.1667 57.7674 26.7167 57.0007 28.25C56.234 29.7833 55.2674 31.1667 54.1007 32.4C52.934 33.6333 51.5507 34.6333 49.9507 35.4C48.3507 36.1333 46.5174 36.5 44.4507 36.5ZM45.0007 33.95C46.634 33.95 48.0174 33.4333 49.1507 32.4C50.3174 31.3333 51.2507 29.9833 51.9507 28.35C52.684 26.6833 53.2174 24.95 53.5507 23.15C53.884 21.35 54.0507 19.7 54.0507 18.2C54.0507 15.7 53.6174 13.9167 52.7507 12.85C51.884 11.7833 50.684 11.25 49.1507 11.25C47.8507 11.25 46.7007 11.6 45.7007 12.3C44.7007 13 43.834 13.9333 43.1007 15.1C42.4007 16.2333 41.8174 17.5 41.3507 18.9C40.9174 20.3 40.584 21.7167 40.3507 23.15C40.1507 24.55 40.0507 25.85 40.0507 27.05C40.0507 29.5833 40.5007 31.3667 41.4007 32.4C42.3007 33.4333 43.5007 33.95 45.0007 33.95ZM70.5616 48C66.9283 48 64.195 47.4333 62.3616 46.3C60.5616 45.2 59.6616 43.6 59.6616 41.5C59.6616 40.1 60.0616 38.9167 60.8616 37.95C61.6283 36.9833 62.6283 36.2 63.8616 35.6C65.1283 35 66.445 34.5667 67.8116 34.3C67.1783 34 66.6116 33.55 66.1116 32.95C65.645 32.35 65.4116 31.65 65.4116 30.85C65.4116 29.7833 65.7616 28.9 66.4616 28.2C67.1616 27.4667 68.395 26.65 70.1616 25.75C69.0616 25.25 68.195 24.5 67.5616 23.5C66.9616 22.5 66.6616 21.2833 66.6616 19.85C66.6616 18.6833 66.895 17.45 67.3616 16.15C67.8283 14.85 68.5283 13.6333 69.4616 12.5C70.4283 11.3667 71.645 10.45 73.1116 9.75C74.5783 9.05 76.295 8.7 78.2616 8.7C79.2616 8.7 80.195 8.83333 81.0616 9.1C81.9616 9.33333 82.745 9.73333 83.4116 10.3C84.0783 9.33333 84.8616 8.5 85.7616 7.8C86.6616 7.1 87.6783 6.75 88.8116 6.75C89.645 6.75 90.2616 6.96666 90.6616 7.4C91.095 7.83333 91.3116 8.38333 91.3116 9.05C91.3116 9.78333 91.095 10.4833 90.6616 11.15C90.2616 11.8167 89.495 12.15 88.3616 12.15C88.3616 11.65 88.245 11.2333 88.0116 10.9C87.7783 10.5333 87.4283 10.35 86.9616 10.35C86.495 10.35 86.0616 10.4833 85.6616 10.75C85.2616 10.9833 84.8783 11.2333 84.5116 11.5C85.245 12.5333 85.6116 13.8167 85.6116 15.35C85.6116 16.4833 85.3783 17.7 84.9116 19C84.4783 20.2667 83.795 21.4833 82.8616 22.65C81.9283 23.7833 80.7283 24.7167 79.2616 25.45C77.8283 26.1833 76.1283 26.55 74.1616 26.55C73.895 26.55 73.6283 26.55 73.3616 26.55C73.095 26.5167 72.8283 26.4833 72.5616 26.45C71.8283 26.7833 71.045 27.2 70.2116 27.7C69.4116 28.2 69.0116 28.8333 69.0116 29.6C69.0116 30.1333 69.245 30.5 69.7116 30.7C70.2116 30.9 70.8283 31.0333 71.5616 31.1L76.3616 31.6C78.8283 31.8333 80.7283 32.4833 82.0616 33.55C83.4283 34.6167 84.1116 36.15 84.1116 38.15C84.1116 41.15 82.9783 43.5333 80.7116 45.3C78.445 47.1 75.0616 48 70.5616 48ZM74.7116 24.15C75.845 24.15 76.8116 23.85 77.6116 23.25C78.4116 22.6167 79.0616 21.8333 79.5616 20.9C80.095 19.9333 80.4783 18.9333 80.7116 17.9C80.945 16.8667 81.0616 15.9333 81.0616 15.1C81.0616 13.6667 80.745 12.6333 80.1116 12C79.5116 11.3333 78.6783 11 77.6116 11C76.4783 11 75.5116 11.3167 74.7116 11.95C73.9116 12.55 73.245 13.3333 72.7116 14.3C72.2116 15.2333 71.845 16.2167 71.6116 17.25C71.3783 18.2833 71.2616 19.2167 71.2616 20.05C71.2616 21.4833 71.5783 22.5333 72.2116 23.2C72.845 23.8333 73.6783 24.15 74.7116 24.15ZM70.7616 45.55C72.9616 45.55 74.7116 45.2667 76.0116 44.7C77.345 44.1667 78.295 43.4333 78.8616 42.5C79.4616 41.6 79.7616 40.6167 79.7616 39.55C79.7616 38.4833 79.395 37.6333 78.6616 37C77.9283 36.3667 76.745 35.9833 75.1116 35.85L70.2616 35.4C69.1283 35.5333 68.0616 35.8167 67.0616 36.25C66.0616 36.7167 65.245 37.35 64.6116 38.15C64.0116 38.9833 63.7116 40 63.7116 41.2C63.7116 42.4667 64.2116 43.5 65.2116 44.3C66.245 45.1333 68.095 45.55 70.7616 45.55ZM100.945 36.5C98.1115 36.5 95.7948 35.65 93.9948 33.95C92.2282 32.2167 91.3448 29.6167 91.3448 26.15C91.3448 24.2833 91.6448 22.35 92.2448 20.35C92.8448 18.3167 93.7615 16.4167 94.9948 14.65C96.2282 12.8833 97.7782 11.45 99.6448 10.35C101.511 9.25 103.711 8.7 106.245 8.7C108.011 8.7 109.611 9.05 111.045 9.75C112.478 10.45 113.611 11.5667 114.445 13.1C115.311 14.6 115.745 16.5833 115.745 19.05C115.745 20.4833 115.561 22 115.195 23.6C114.828 25.1667 114.261 26.7167 113.495 28.25C112.728 29.7833 111.761 31.1667 110.595 32.4C109.428 33.6333 108.045 34.6333 106.445 35.4C104.845 36.1333 103.011 36.5 100.945 36.5ZM101.495 33.95C103.128 33.95 104.511 33.4333 105.645 32.4C106.811 31.3333 107.745 29.9833 108.445 28.35C109.178 26.6833 109.711 24.95 110.045 23.15C110.378 21.35 110.545 19.7 110.545 18.2C110.545 15.7 110.111 13.9167 109.245 12.85C108.378 11.7833 107.178 11.25 105.645 11.25C104.345 11.25 103.195 11.6 102.195 12.3C101.195 13 100.328 13.9333 99.5948 15.1C98.8948 16.2333 98.3115 17.5 97.8448 18.9C97.4115 20.3 97.0782 21.7167 96.8448 23.15C96.6448 24.55 96.5448 25.85 96.5448 27.05C96.5448 29.5833 96.9948 31.3667 97.8948 32.4C98.7948 33.4333 99.9948 33.95 101.495 33.95Z" fill="black"/>
</svg>
